<svg xmlns="http://www.w3.org/2000/svg" width="32" height="32" viewBox="0 0 32 32" fill="none">
  <path d="M0 0H32V32H0V0Z" fill="#E23744" style="fill:#E23744;fill:color(display-p3 0.8863 0.2157 0.2667);fill-opacity:1;"/>
  <path d="M24.6296 17.1278C24.6096 17.0637 24.6047 16.9996 24.6151 16.9355C24.6351 16.7824 24.7337 16.659 24.8274 16.5404C26.2844 14.6684 26.9959 12.2282 26.7739 9.86182C26.6802 8.87928 26.4133 7.87604 25.801 7.09552C24.8971 5.95439 23.3857 5.46553 21.9384 5.30763C20.4911 5.14974 19.0142 5.25868 17.5766 5.01115V8.07876C18.6881 8.05394 19.8189 8.02912 20.8911 8.33043C21.9632 8.62692 22.9858 9.30333 23.4298 10.321C23.9587 11.5215 23.0547 14.5891 22.2839 15.6509C20.3967 14.1588 18.3026 13.6203 15.8921 13.6203C13.4913 13.6252 11.4614 14.243 9.57901 15.7344C8.82331 14.6773 8.04762 11.5456 8.55647 10.35C8.99638 9.32263 10.0237 8.63588 11.0952 8.33456C12.1722 8.02842 13.3085 8.05256 14.4249 8.07738C14.4297 7.05484 14.4297 6.0323 14.4297 5.00977C14.1084 5.03459 13.7878 5.05389 13.4616 5.07872C13.1403 5.09871 12.8197 5.12353 12.4984 5.14284C12.1771 5.16766 11.8564 5.18697 11.5351 5.21179C11.209 5.23179 10.8884 5.25661 10.5671 5.27591C10.3002 5.29591 10.0334 5.32487 9.76655 5.36486C9.50937 5.39934 9.25287 5.44416 9.0012 5.50345C8.74953 5.55793 8.49717 5.62688 8.25516 5.711C8.01314 5.79029 7.77595 5.88889 7.5491 6.00266C7.32708 6.11643 7.1092 6.2495 6.90717 6.40257C6.7741 6.50117 6.64516 6.61494 6.52656 6.72871C5.53367 7.71125 5.18823 9.18335 5.18272 10.5768C5.17306 12.6957 5.86946 14.8152 7.13885 16.5142C7.25261 16.6673 7.38086 16.8355 7.38086 17.0279C7.38086 17.1858 7.30157 17.3244 7.22779 17.4623C5.71157 20.2086 5.795 23.5334 6.06666 26.6603C6.07632 26.754 6.08666 26.8575 6.16044 26.9223C6.22939 26.9864 6.33833 26.9912 6.43693 26.9864C7.35604 26.9568 8.27929 26.9319 9.1984 26.9023C9.30183 26.8975 9.42042 26.8926 9.49972 26.823C9.61831 26.7244 9.61348 26.5465 9.59831 26.3983C9.34664 23.7947 8.95639 20.0162 10.1272 17.6794C14.3552 19.2998 16.6623 19.5466 21.7653 17.5705C23.114 19.7935 22.6348 23.7602 22.4073 26.3486C22.3928 26.5217 22.3928 26.7341 22.5355 26.8375C22.6196 26.8968 22.7279 26.9016 22.832 26.9064C23.7408 26.9313 24.6447 26.9554 25.5535 26.985C25.6569 26.985 25.7707 26.985 25.85 26.9161C25.9141 26.8471 25.9293 26.7485 25.9389 26.6541C26.2106 23.5223 26.2844 20.1982 24.773 17.4464C24.7185 17.343 24.6592 17.234 24.6296 17.1251V17.1278ZM15.9949 18.0173C13.1693 18.0173 10.8822 17.232 10.8822 16.2536C10.8822 15.2751 13.1693 14.4905 15.9949 14.4905C18.8205 14.4905 21.1124 15.2807 21.1124 16.2536C21.1124 17.2264 18.8205 18.0173 15.9949 18.0173Z" fill="white" style="fill:white;fill-opacity:1;"/>
</svg>