<svg xmlns="http://www.w3.org/2000/svg" width="100" height="100" viewBox="0 0 100 100" fill="none">
  <rect width="100" height="100" rx="16" fill="#E23744" fill-opacity="0.12" style="fill:#E23744;fill:color(display-p3 0.8863 0.2157 0.2667);fill-opacity:0.12;"/>
  <path d="M49.9435 19C49.9435 19 42.2741 31.7204 24 32.4831C24 32.4831 24 39.5308 24 44.1267C24 76.9155 49.9435 80.7451 49.9435 80.7451C49.9435 80.7451 75.887 76.9155 75.887 44.1267C75.887 39.5308 75.887 32.4831 75.887 32.4831C57.6128 31.7204 49.9435 19 49.9435 19Z" fill="#E23744" style="fill:#E23744;fill:color(display-p3 0.8863 0.2157 0.2667);fill-opacity:1;"/>
  <path d="M56.6369 48.5063H43.2499C41.6207 48.5063 40.2998 49.8269 40.2998 51.456V63.4523C40.2998 65.0815 41.6207 66.4021 43.2499 66.4021H56.6369C58.266 66.4021 59.587 65.0815 59.587 63.4523V51.456C59.587 49.8268 58.266 48.5063 56.6369 48.5063ZM48.6797 62.2439L45.187 58.7516L46.4893 57.4489L48.4368 59.3965L53.196 52.6645L54.6998 53.7278L48.6797 62.2439Z" fill="white" style="fill:white;fill-opacity:1;"/>
  <path d="M45.7383 42.4433C45.7383 40.1247 47.6248 38.2386 49.9434 38.2386C52.262 38.2386 54.1485 40.1247 54.1485 42.4433V46.9624H56.003V42.4433C56.003 39.0969 53.2899 36.3842 49.9434 36.3842C46.5969 36.3842 43.8838 39.0969 43.8838 42.4433V46.9624H45.7383V42.4433Z" fill="white" style="fill:white;fill-opacity:1;"/>
</svg>