<svg xmlns="http://www.w3.org/2000/svg" width="20" height="20" viewBox="0 0 20 20" fill="none">
  <path d="M1.45898 8.33203V11.6654C1.45898 14.0229 1.45898 15.2012 2.19148 15.9337C2.37232 16.1145 2.58065 16.2504 2.82732 16.3537L2.81148 16.242C2.70898 15.477 2.70898 14.5229 2.70898 13.4145V6.5837C2.70898 5.47536 2.70898 4.52036 2.81148 3.7562L2.82815 3.64453C2.58993 3.74047 2.37343 3.88329 2.19148 4.06453C1.45898 4.79703 1.45898 5.97536 1.45898 8.33203ZM18.1257 8.33203V11.6654C18.1257 14.0229 18.1257 15.2012 17.3932 15.9337C17.2123 16.1145 17.004 16.2504 16.7573 16.3537L16.7732 16.242C16.8757 15.477 16.8757 14.5229 16.8757 13.4145V6.5837C16.8757 5.47536 16.8757 4.52036 16.7732 3.7562L16.7565 3.64453C17.004 3.74703 17.2123 3.8837 17.3932 4.06453C18.1257 4.79703 18.1257 5.97536 18.1257 8.33203Z" fill="#E23744" style="fill:#E23744;fill:color(display-p3 0.8863 0.2157 0.2667);fill-opacity:1;"/>
  <path fill-rule="evenodd" clip-rule="evenodd" d="M4.69148 2.40047C3.95898 3.13214 3.95898 4.3113 3.95898 6.66797V13.3346C3.95898 15.6913 3.95898 16.8705 4.69148 17.6021C5.42315 18.3346 6.60232 18.3346 8.95898 18.3346H10.6257C12.9823 18.3346 14.1615 18.3346 14.8932 17.6021C15.6257 16.8705 15.6257 15.6913 15.6257 13.3346V6.66797C15.6257 4.3113 15.6257 3.13214 14.8932 2.40047C14.1615 1.66797 12.9823 1.66797 10.6257 1.66797H8.95898C6.60232 1.66797 5.42315 1.66797 4.69148 2.40047ZM6.66732 14.168C6.66732 14.0022 6.73317 13.8432 6.85038 13.726C6.96759 13.6088 7.12656 13.543 7.29232 13.543H9.79232C9.95808 13.543 10.117 13.6088 10.2343 13.726C10.3515 13.8432 10.4173 14.0022 10.4173 14.168C10.4173 14.3337 10.3515 14.4927 10.2343 14.6099C10.117 14.7271 9.95808 14.793 9.79232 14.793H7.29232C7.12656 14.793 6.96759 14.7271 6.85038 14.6099C6.73317 14.4927 6.66732 14.3337 6.66732 14.168ZM7.29232 10.2096C7.12656 10.2096 6.96759 10.2755 6.85038 10.3927C6.73317 10.5099 6.66732 10.6689 6.66732 10.8346C6.66732 11.0004 6.73317 11.1594 6.85038 11.2766C6.96759 11.3938 7.12656 11.4596 7.29232 11.4596H12.2923C12.4581 11.4596 12.617 11.3938 12.7343 11.2766C12.8515 11.1594 12.9173 11.0004 12.9173 10.8346C12.9173 10.6689 12.8515 10.5099 12.7343 10.3927C12.617 10.2755 12.4581 10.2096 12.2923 10.2096H7.29232ZM6.66732 7.5013C6.66732 7.33554 6.73317 7.17657 6.85038 7.05936C6.96759 6.94215 7.12656 6.8763 7.29232 6.8763H12.2923C12.4581 6.8763 12.617 6.94215 12.7343 7.05936C12.8515 7.17657 12.9173 7.33554 12.9173 7.5013C12.9173 7.66706 12.8515 7.82603 12.7343 7.94324C12.617 8.06045 12.4581 8.1263 12.2923 8.1263H7.29232C7.12656 8.1263 6.96759 8.06045 6.85038 7.94324C6.73317 7.82603 6.66732 7.66706 6.66732 7.5013Z" fill="#E23744" style="fill:#E23744;fill:color(display-p3 0.8863 0.2157 0.2667);fill-opacity:1;"/>
</svg>