<svg xmlns="http://www.w3.org/2000/svg" width="30" height="30" viewBox="0 0 30 30" fill="none">
  <path d="M20.8726 27.495H6.37261C5.86059 27.4971 5.35336 27.3964 4.88098 27.1989C4.4086 27.0013 3.98068 26.711 3.62261 26.345C3.26189 25.9817 2.97675 25.5505 2.78366 25.0763C2.59056 24.6021 2.49334 24.0944 2.49761 23.5825V9.09497C2.49122 8.58533 2.5888 8.07972 2.78437 7.60905C2.97995 7.13838 3.26942 6.71252 3.63511 6.35747C3.99092 5.99673 4.41614 5.71182 4.88511 5.51997C5.36021 5.3213 5.87014 5.21931 6.38511 5.21997H11.9351C12.1837 5.21997 12.4222 5.31875 12.598 5.49456C12.7738 5.67038 12.8726 5.90883 12.8726 6.15747C12.8726 6.40611 12.7738 6.64457 12.598 6.82039C12.4222 6.9962 12.1837 7.09497 11.9351 7.09497H6.38511C6.11625 7.10229 5.85033 7.15294 5.59761 7.24497C5.22929 7.40044 4.91522 7.66146 4.695 7.99513C4.47478 8.3288 4.35825 8.72019 4.36011 9.11997V23.6075C4.35698 23.876 4.40731 24.1426 4.50817 24.3915C4.60903 24.6404 4.75841 24.8668 4.94761 25.0575C5.13677 25.2452 5.36113 25.3937 5.6078 25.4945C5.85448 25.5953 6.11863 25.6465 6.38511 25.645H20.8851C21.1514 25.645 21.4139 25.595 21.6601 25.495C21.9052 25.3965 22.1267 25.2475 22.3101 25.0575C22.5001 24.874 22.6492 24.6525 22.7476 24.4075C22.8581 24.1598 22.9135 23.8911 22.9101 23.62V18.07C22.9101 17.8213 23.0089 17.5829 23.1847 17.4071C23.3605 17.2312 23.599 17.1325 23.8476 17.1325C24.0962 17.1325 24.3347 17.2312 24.5105 17.4071C24.6863 17.5829 24.7851 17.8213 24.7851 18.07V23.6575C24.7872 24.1695 24.6866 24.6767 24.489 25.1491C24.2915 25.6215 24.0011 26.0494 23.6351 26.4075C23.2763 26.7677 22.852 27.0562 22.3851 27.2575C21.9014 27.4325 21.3876 27.5137 20.8726 27.495Z" fill="#6B7280" style="fill:#6B7280;fill:color(display-p3 0.4196 0.4471 0.5020);fill-opacity:1;"/>
  <path d="M27.2601 6.81994C27.1326 6.49809 26.9364 6.20799 26.6851 5.96994L23.9976 3.28244C23.7595 3.03112 23.4694 2.83488 23.1476 2.70744C22.6639 2.50366 22.1303 2.44952 21.6156 2.55201C21.1009 2.65451 20.6287 2.90893 20.2601 3.28244L18.1226 5.41994V5.48244L8.44756 15.1449C7.95911 15.6368 7.685 16.3018 7.68506 16.9949V19.7074C7.68835 20.4059 7.96728 21.0749 8.4612 21.5688C8.95511 22.0627 9.62406 22.3417 10.3226 22.3449H13.0351C13.3795 22.3454 13.7205 22.2771 14.0382 22.144C14.3559 22.0109 14.6438 21.8157 14.8851 21.5699L24.5601 11.8949L26.7101 9.74494C26.9626 9.50744 27.1601 9.21744 27.2851 8.89494C27.4281 8.57436 27.502 8.22724 27.502 7.87619C27.502 7.52514 27.4281 7.17803 27.2851 6.85744L27.2601 6.81994ZM25.5351 8.13244C25.4945 8.22689 25.4349 8.31198 25.3601 8.38244L23.8351 9.90744L20.0851 6.15744L21.6226 4.61994C21.7702 4.47711 21.9671 4.39655 22.1726 4.39494C22.2716 4.39659 22.3693 4.41783 22.4601 4.45744C22.5567 4.49828 22.6401 4.55661 22.7101 4.63244L25.4101 7.31994C25.4781 7.39337 25.5331 7.47793 25.5726 7.56994C25.5911 7.66488 25.5911 7.76251 25.5726 7.85744C25.5773 7.95064 25.5646 8.04391 25.5351 8.13244Z" fill="#6B7280" style="fill:#6B7280;fill:color(display-p3 0.4196 0.4471 0.5020);fill-opacity:1;"/>
</svg>