<svg width="14" height="17" viewBox="0 0 14 17" fill="none" xmlns="http://www.w3.org/2000/svg">
<path d="M4.16797 7.08038C4.16797 6.36235 4.45321 5.67373 4.96093 5.16601C5.46865 4.65828 6.15727 4.37305 6.8753 4.37305C7.59333 4.37305 8.28195 4.65828 8.78967 5.16601C9.2974 5.67373 9.58263 6.36235 9.58263 7.08038C9.58263 7.79841 9.2974 8.48703 8.78967 8.99475C8.28195 9.50248 7.59333 9.78771 6.8753 9.78771C6.15727 9.78771 5.46865 9.50248 4.96093 8.99475C4.45321 8.48703 4.16797 7.79841 4.16797 7.08038Z" fill="#6B7280" style="fill:#6B7280;fill:color(display-p3 0.4196 0.4471 0.5020);fill-opacity:1;"/>
<path fill-rule="evenodd" clip-rule="evenodd" d="M0.0243252 6.14523C0.162888 4.47064 0.925846 2.90932 2.16184 1.771C3.39783 0.632682 5.01655 0.000546942 6.69686 0H7.05673C8.73704 0.000546942 10.3558 0.632682 11.5917 1.771C12.8277 2.90932 13.5907 4.47064 13.7293 6.14523C13.883 8.01488 13.3058 9.87131 12.119 11.3241L8.12633 16.2073C7.975 16.3926 7.78438 16.5418 7.56827 16.6443C7.35217 16.7468 7.11598 16.8 6.87679 16.8C6.63761 16.8 6.40142 16.7468 6.18531 16.6443C5.9692 16.5418 5.77859 16.3926 5.62725 16.2073L1.6354 11.3241C0.448304 9.87143 -0.129204 8.01499 0.0243252 6.14523ZM6.87679 3.12385C5.82737 3.12385 4.82092 3.54073 4.07886 4.28279C3.33681 5.02484 2.91992 6.03129 2.91992 7.08072C2.91992 8.13014 3.33681 9.13659 4.07886 9.87865C4.82092 10.6207 5.82737 11.0376 6.87679 11.0376C7.92622 11.0376 8.93267 10.6207 9.67472 9.87865C10.4168 9.13659 10.8337 8.13014 10.8337 7.08072C10.8337 6.03129 10.4168 5.02484 9.67472 4.28279C8.93267 3.54073 7.92622 3.12385 6.87679 3.12385Z" fill="#6B7280" style="fill:#6B7280;fill:color(display-p3 0.4196 0.4471 0.5020);fill-opacity:1;"/>
</svg>
