<svg xmlns="http://www.w3.org/2000/svg" width="42" height="44" viewBox="0 0 42 44" fill="none">
  <path d="M37.5199 24.1068C37.4813 23.9793 37.472 23.8517 37.492 23.7241C37.5306 23.4196 37.7208 23.1741 37.9017 22.9382C40.7126 19.2141 42.0855 14.3599 41.6572 9.65234C41.4762 7.69773 40.9614 5.70197 39.7801 4.14926C38.0361 1.87917 35.1201 0.906665 32.3278 0.592556C29.5355 0.278447 26.686 0.49517 23.9123 0.00274599V6.10524C26.0568 6.05586 28.2384 6.00648 30.307 6.6059C32.3756 7.19571 34.3485 8.5413 35.2052 10.5659C36.2255 12.9539 34.4815 19.0564 32.9943 21.1688C29.3532 18.2005 25.3131 17.1292 20.6624 17.1292C16.0303 17.1388 12.1139 18.3678 8.48218 21.3347C7.02417 19.232 5.52757 13.0019 6.50933 10.6235C7.35806 8.57971 9.34022 7.21353 11.4075 6.61412C13.4854 6.0051 15.6777 6.05311 17.8315 6.10249C17.8408 4.06833 17.8408 2.03416 17.8408 0C17.2209 0.0493796 16.6023 0.0877859 15.9731 0.137166C15.3531 0.176944 14.7346 0.226322 14.1146 0.264728C13.4947 0.314108 12.8761 0.352514 12.2562 0.401894C11.627 0.441672 11.0084 0.491051 10.3885 0.529457C9.87365 0.569235 9.35884 0.62685 8.84401 0.706406C8.34781 0.774989 7.85293 0.864148 7.36737 0.98211C6.88181 1.09047 6.39491 1.22764 5.92798 1.39498C5.46104 1.55272 5.00342 1.74886 4.56575 1.97519C4.1374 2.20151 3.71705 2.46624 3.32727 2.77075C3.07052 2.96689 2.82175 3.19321 2.59294 3.41954C0.677312 5.37414 0.0108334 8.30263 0.000191055 11.0747C-0.0184331 15.2898 1.32515 19.5063 3.77423 22.8861C3.99373 23.1906 4.24117 23.5253 4.24117 23.908C4.24117 24.2221 4.08819 24.4978 3.94585 24.7721C1.02052 30.2354 1.18147 36.8495 1.70561 43.07C1.72423 43.2565 1.7442 43.4623 1.88655 43.5912C2.01958 43.7188 2.22976 43.7284 2.42 43.7188C4.19328 43.6598 5.97456 43.6104 7.74785 43.5514C7.94739 43.5418 8.17619 43.5322 8.32917 43.3937C8.55798 43.1975 8.54866 42.8437 8.5194 42.5488C8.03384 37.3694 7.28091 29.8527 9.53976 25.2042C17.6972 28.4276 22.1483 28.9186 31.9939 24.9875C34.5959 29.4097 33.6714 37.3008 33.2324 42.45C33.2044 42.7943 33.2044 43.2168 33.4798 43.4225C33.6421 43.5405 33.851 43.5501 34.0518 43.5597C35.8052 43.609 37.5492 43.657 39.3025 43.716C39.5021 43.716 39.7216 43.716 39.8746 43.5789C39.9983 43.4417 40.0275 43.2456 40.0461 43.0576C40.5703 36.8276 40.7126 30.2148 37.7966 24.7405C37.6915 24.5348 37.5771 24.3181 37.5199 24.1014V24.1068ZM20.8606 25.8763C15.409 25.8763 10.9964 24.314 10.9964 22.3676C10.9964 20.4212 15.409 18.8603 20.8606 18.8603C26.3121 18.8603 30.7341 20.4322 30.7341 22.3676C30.7341 24.303 26.3121 25.8763 20.8606 25.8763Z" fill="#E23744" style="fill:#E23744;fill:color(display-p3 0.8863 0.2157 0.2667);fill-opacity:1;"/>
</svg>
