<svg width="830" height="838" viewBox="0 0 830 838" fill="none" xmlns="http://www.w3.org/2000/svg">
<path opacity="0.1" d="M746.188 462.05C745.42 459.605 745.235 457.16 745.632 454.715C746.399 448.879 750.183 444.173 753.781 439.651C809.684 368.273 836.987 275.232 828.468 185.004C824.87 147.541 814.631 109.288 791.137 79.5278C756.453 36.0176 698.46 17.3778 642.928 11.3574C587.395 5.33693 530.725 9.49081 475.563 0.0526317V117.018C518.211 116.071 561.599 115.125 602.74 126.614C643.88 137.918 683.115 163.709 700.153 202.513C720.446 248.285 685.761 365.25 656.183 405.736C583.771 348.844 503.421 328.312 410.929 328.312C318.806 328.496 240.918 352.052 168.692 408.918C139.695 368.615 109.931 249.205 129.456 203.618C146.336 164.445 185.756 138.26 226.87 126.771C268.195 115.098 311.795 116.019 354.629 116.965C354.814 77.9767 354.814 38.9884 354.814 0C342.485 0.946447 330.183 1.68257 317.669 2.62902C305.34 3.39143 293.038 4.33786 280.709 5.07399C268.38 6.02043 256.078 6.75656 243.749 7.70301C231.235 8.46542 218.932 9.41185 206.604 10.148C196.365 10.9104 186.127 12.0147 175.888 13.5395C166.019 14.854 156.177 16.5629 146.521 18.8239C136.864 20.9008 127.181 23.5298 117.894 26.7372C108.608 29.7606 99.5069 33.5201 90.8027 37.8579C82.2836 42.1958 73.9238 47.2698 66.172 53.1062C61.0659 56.8657 56.1184 61.2035 51.5679 65.5414C13.4702 103.005 0.215453 159.135 0.00379966 212.267C-0.366594 293.057 26.3543 373.873 75.0611 438.652C79.4264 444.488 84.3474 450.903 84.3474 458.238C84.3474 464.259 81.305 469.543 78.4741 474.801C20.2958 579.515 23.4969 706.286 33.9208 825.512C34.2912 829.088 34.6883 833.031 37.5192 835.502C40.1649 837.947 44.345 838.131 48.1284 837.947C83.3951 836.817 118.821 835.87 154.088 834.74C158.056 834.556 162.606 834.372 165.649 831.716C170.199 827.957 170.014 821.174 169.432 815.522C159.775 716.25 144.801 572.18 189.725 483.082C351.957 544.864 440.481 554.276 636.287 478.929C688.036 563.688 669.648 714.935 660.918 813.629C660.362 820.228 660.362 828.325 665.839 832.269C669.067 834.53 673.221 834.714 677.215 834.898C712.085 835.844 746.77 836.764 781.64 837.895C785.608 837.895 789.974 837.895 793.016 835.266C795.477 832.637 796.058 828.877 796.429 825.276C806.853 705.865 809.684 579.12 751.691 474.196C749.601 470.253 747.325 466.099 746.188 461.945V462.05ZM414.871 495.965C306.451 495.965 218.695 466.02 218.695 428.714C218.695 391.409 306.451 361.49 414.871 361.49C523.29 361.49 611.232 391.619 611.232 428.714C611.232 465.81 523.29 495.965 414.871 495.965Z" fill="#E23744" style="fill:#E23744;fill:color(display-p3 0.8863 0.2157 0.2667);fill-opacity:1;"/>
</svg>
