<svg xmlns="http://www.w3.org/2000/svg" width="25" height="26" viewBox="0 0 25 26" fill="none">
  <path fill-rule="evenodd" clip-rule="evenodd" d="M6.63546 2.46499C7.79564 1.28781 9.27368 0.486222 10.8827 0.161581C12.4917 -0.16306 14.1594 0.00382544 15.675 0.641136C17.1906 1.27845 18.4859 2.35756 19.3972 3.74204C20.3086 5.12651 20.795 6.75417 20.795 8.41921C20.795 9.46486 20.9619 10.4643 21.2314 11.5253C21.2997 11.741 21.3737 11.9439 21.4533 12.1339C21.5615 12.39 21.7797 12.6114 22.1971 12.8849C22.3602 12.9889 22.5272 13.0871 22.7169 13.1968L22.8934 13.3008C23.1476 13.4491 23.4303 13.6224 23.7016 13.8265C24.6844 14.5641 25.0449 15.7002 24.9956 16.7247C24.9482 17.7203 24.508 18.7601 23.6865 19.3879C23.6335 19.4293 23.5784 19.4679 23.5214 19.5035C23.3837 19.593 23.2405 19.6734 23.0926 19.7442C22.5269 20.0064 21.9372 20.2115 21.3319 20.3565C19.6813 20.7802 16.9473 21.1826 12.5 21.1826C8.05274 21.1826 5.31873 20.7802 3.66809 20.3565C3.06283 20.2115 2.4731 20.0064 1.9074 19.7442C1.71331 19.6512 1.52734 19.5417 1.35149 19.4168L1.31354 19.3879C0.492013 18.7601 0.0537378 17.7203 0.0044081 16.7247C-0.0449216 15.7002 0.315565 14.5641 1.29836 13.8265C1.55887 13.6376 1.82863 13.4621 2.10661 13.3008L2.28306 13.1968C2.47279 13.0871 2.63975 12.9889 2.80292 12.8829C3.22032 12.6134 3.43851 12.39 3.54476 12.1339C3.92991 11.2172 4.20502 10.0079 4.20502 8.41728C4.20502 6.18541 5.07967 4.04598 6.63356 2.46692M10.2953 22.6C10.1149 22.5374 9.92015 22.5314 9.73637 22.5829C9.55259 22.6344 9.38835 22.7408 9.26506 22.8884C9.14177 23.036 9.06515 23.2178 9.04519 23.4103C9.02523 23.6027 9.06286 23.7968 9.15317 23.9672C9.47736 24.5815 9.95969 25.095 10.5487 25.4529C11.1378 25.8109 11.8115 26 12.4981 26C13.1847 26 13.8584 25.8109 14.4475 25.4529C15.0365 25.095 15.5188 24.5815 15.843 23.9672C15.9331 23.7969 15.9705 23.6032 15.9506 23.411C15.9306 23.2189 15.8542 23.0373 15.7312 22.8898C15.6082 22.7423 15.4444 22.6358 15.261 22.5841C15.0775 22.5324 14.8831 22.538 14.7028 22.6C14.2208 22.7656 13.5113 22.8927 12.4981 22.8927C11.4849 22.8927 10.7773 22.7656 10.2953 22.6Z" fill="#E23744" style="fill:#E23744;fill:color(display-p3 0.8863 0.2157 0.2667);fill-opacity:1;"/>
</svg>