<svg xmlns="http://www.w3.org/2000/svg" width="24" height="24" viewBox="0 0 24 24" fill="none">
  <path d="M2 4.85714C2 4.09938 2.30102 3.37266 2.83684 2.83684C3.37266 2.30102 4.09938 2 4.85714 2H19.1429C19.9006 2 20.6273 2.30102 21.1632 2.83684C21.699 3.37266 22 4.09938 22 4.85714V19.1429C22 19.9006 21.699 20.6273 21.1632 21.1632C20.6273 21.699 19.9006 22 19.1429 22H4.85714C4.09938 22 3.37266 21.699 2.83684 21.1632C2.30102 20.6273 2 19.9006 2 19.1429V4.85714Z" fill="#E23744" style="fill:#E23744;fill:color(display-p3 0.8863 0.2157 0.2667);fill-opacity:1;"/>
  <path d="M5.5 13L8 15.5M11.5 11.5L14 9M9.5 13L12 15.5L18 9" stroke="white" style="stroke:white;stroke-opacity:1;" stroke-width="1.2" stroke-linecap="round" stroke-linejoin="round"/>
</svg>