<svg xmlns="http://www.w3.org/2000/svg" width="32" height="32" viewBox="0 0 32 32" fill="none">
  <path fill-rule="evenodd" clip-rule="evenodd" d="M18.6453 3.38935C18.7613 3.61469 18.7906 3.90402 18.848 4.48269C18.9573 5.57602 19.012 6.12269 19.2413 6.42402C19.3842 6.61112 19.5741 6.75705 19.7916 6.84697C20.0092 6.9369 20.2467 6.96763 20.48 6.93602C20.8533 6.88669 21.28 6.53869 22.1306 5.84269C22.58 5.47335 22.8053 5.28935 23.0466 5.21202C23.354 5.1138 23.6866 5.13038 23.9826 5.25869C24.216 5.36002 24.4226 5.56535 24.832 5.97602L26.024 7.16802C26.4346 7.57869 26.64 7.78402 26.7413 8.01735C26.8696 8.31343 26.8862 8.64599 26.788 8.95335C26.7106 9.19469 26.5266 9.42002 26.1586 9.86935C25.4613 10.7214 25.1133 11.1467 25.0626 11.5214C25.0314 11.7545 25.0625 11.9919 25.1526 12.2092C25.2428 12.4265 25.3888 12.6161 25.576 12.7587C25.876 12.988 26.424 13.0427 27.5186 13.152C28.096 13.2094 28.3853 13.2387 28.612 13.3547C28.8979 13.503 29.1205 13.7497 29.2386 14.0494C29.3333 14.2854 29.3333 14.576 29.3333 15.1574V16.8427C29.3333 17.424 29.3333 17.7147 29.24 17.9494C29.1214 18.2499 28.8978 18.4973 28.6106 18.6454C28.3853 18.7614 28.096 18.7907 27.5173 18.848C26.424 18.9574 25.8773 19.012 25.576 19.2414C25.3889 19.3842 25.2429 19.5741 25.153 19.7917C25.0631 20.0092 25.0324 20.2467 25.064 20.48C25.1146 20.8534 25.4626 21.28 26.1586 22.1307C26.5266 22.58 26.7106 22.804 26.788 23.0467C26.8862 23.3541 26.8696 23.6866 26.7413 23.9827C26.64 24.216 26.4346 24.4214 26.024 24.832L24.832 26.0227C24.4213 26.4347 24.216 26.64 23.9826 26.74C23.6866 26.8683 23.354 26.8849 23.0466 26.7867C22.8053 26.7094 22.58 26.5254 22.1306 26.1574C21.2786 25.4614 20.8533 25.1134 20.48 25.064C20.2467 25.0324 20.0092 25.0631 19.7916 25.1531C19.5741 25.243 19.3842 25.3889 19.2413 25.576C19.012 25.876 18.9573 26.4227 18.848 27.5174C18.7906 28.096 18.7613 28.3854 18.6453 28.6107C18.4975 28.8976 18.2507 29.1212 17.9506 29.24C17.7146 29.3334 17.424 29.3334 16.8426 29.3334H15.1573C14.576 29.3334 14.2853 29.3334 14.0506 29.24C13.75 29.1215 13.5027 28.8979 13.3546 28.6107C13.2386 28.3854 13.2093 28.096 13.152 27.5174C13.0426 26.424 12.988 25.8774 12.7586 25.576C12.6159 25.3891 12.4262 25.2433 12.2089 25.1534C11.9916 25.0635 11.7544 25.0327 11.5213 25.064C11.1466 25.1134 10.7213 25.4614 9.86929 26.1574C9.41996 26.5267 9.19463 26.7107 8.95329 26.788C8.64593 26.8862 8.31337 26.8697 8.01729 26.7414C7.78396 26.64 7.57729 26.4347 7.16796 26.024L5.97596 24.832C5.56529 24.4214 5.35996 24.216 5.25863 23.9827C5.13032 23.6866 5.11374 23.3541 5.21196 23.0467C5.28929 22.8054 5.47329 22.58 5.84129 22.1307C6.53863 21.2787 6.88663 20.8534 6.93596 20.4787C6.96732 20.2456 6.93648 20.0084 6.84656 19.7911C6.75664 19.5738 6.61084 19.3841 6.42396 19.2414C6.12396 19.012 5.57596 18.9574 4.48129 18.848C3.90396 18.7907 3.61463 18.7614 3.38796 18.6454C3.10202 18.4971 2.87942 18.2503 2.76129 17.9507C2.66663 17.7147 2.66663 17.424 2.66663 16.8427V15.1574C2.66663 14.576 2.66663 14.2854 2.75996 14.0507C2.87848 13.7501 3.10211 13.5028 3.38929 13.3547C3.61463 13.2387 3.90396 13.2094 4.48263 13.152C5.57596 13.0427 6.12396 12.988 6.42396 12.7587C6.61108 12.6161 6.75714 12.4265 6.8473 12.2092C6.93745 11.9919 6.9685 11.7545 6.93729 11.5214C6.88663 11.1467 6.53729 10.7214 5.84129 9.86802C5.47329 9.41869 5.28929 9.19469 5.21196 8.95202C5.11374 8.64465 5.13032 8.3121 5.25863 8.01602C5.35996 7.78402 5.56529 7.57735 5.97596 7.16669L7.16796 5.97602C7.57863 5.56535 7.78396 5.35869 8.01729 5.25869C8.31337 5.13038 8.64593 5.1138 8.95329 5.21202C9.19463 5.28935 9.41996 5.47335 9.86929 5.84135C10.7213 6.53735 11.1466 6.88535 11.52 6.93602C11.7536 6.96772 11.9914 6.93692 12.2093 6.84674C12.4271 6.75656 12.6171 6.61024 12.76 6.42269C12.9866 6.12269 13.0426 5.57602 13.152 4.48135C13.2093 3.90402 13.2386 3.61469 13.3546 3.38802C13.5026 3.10158 13.7494 2.87848 14.0493 2.76002C14.2853 2.66669 14.576 2.66669 15.1573 2.66669H16.8426C17.424 2.66669 17.7146 2.66669 17.9493 2.76002C18.2499 2.87854 18.4972 3.10217 18.6453 3.38935ZM16 21.3334C17.4144 21.3334 18.771 20.7715 19.7712 19.7713C20.7714 18.7711 21.3333 17.4145 21.3333 16C21.3333 14.5855 20.7714 13.229 19.7712 12.2288C18.771 11.2286 17.4144 10.6667 16 10.6667C14.5855 10.6667 13.2289 11.2286 12.2287 12.2288C11.2285 13.229 10.6666 14.5855 10.6666 16C10.6666 17.4145 11.2285 18.7711 12.2287 19.7713C13.2289 20.7715 14.5855 21.3334 16 21.3334Z" fill="#E23744" style="fill:#E23744;fill:color(display-p3 0.8863 0.2157 0.2667);fill-opacity:1;"/>
</svg>