<svg xmlns="http://www.w3.org/2000/svg" width="88" height="90" viewBox="0 0 88 90" fill="none">
  <path d="M86.7764 49.1563C87.6042 50.4403 87.9999 51.8781 87.9999 53.3015C87.9999 55.8766 86.7032 58.4006 84.3368 59.8458C82.0438 61.2471 80.6812 63.7343 80.6812 66.3756C80.6812 66.691 80.7031 67.0065 80.7399 67.3293C80.7839 67.6521 80.7986 67.975 80.7986 68.2904C80.7986 72.1643 77.8682 75.5025 73.912 75.8987C72.4175 76.0455 71.0329 76.6324 69.9047 77.5348C68.7765 78.4373 67.9047 79.6551 67.4286 81.0859C66.3517 84.2921 63.3701 86.3022 60.1831 86.3022C59.3113 86.3022 58.425 86.1556 57.5604 85.8401C57.1355 85.686 56.7032 85.5686 56.2637 85.4953C55.8242 85.4146 55.3846 85.378 54.9451 85.378C52.9231 85.378 50.9378 86.1849 49.4726 87.689C47.9781 89.2296 45.9854 90 44 90C42.0148 90 40.022 89.2296 38.5275 87.689C37.0623 86.1849 35.0769 85.378 33.0549 85.378C32.1758 85.378 31.2894 85.532 30.4395 85.8401C29.5749 86.1556 28.6885 86.3022 27.8168 86.3022C24.6298 86.3022 21.6482 84.292 20.5714 81.0859C20.0951 79.6551 19.2234 78.4373 18.0952 77.5348C16.967 76.6324 15.5824 76.0455 14.0879 75.8987C10.1318 75.5025 7.20141 72.1644 7.20141 68.2904C7.20141 67.975 7.21606 67.6521 7.25998 67.3293C7.29664 67.0065 7.31865 66.691 7.31865 66.3756C7.31865 63.7344 5.95595 61.2472 3.66308 59.8458C1.29677 58.4006 0 55.8766 0 53.3015C0 51.8781 0.395752 50.4401 1.22344 49.1563C2.04399 47.887 2.44689 46.449 2.44689 44.9964C2.44689 43.5584 2.04399 42.1057 1.22344 40.8439C0.395752 39.5599 0 38.1218 0 36.6986C0 34.1235 1.29677 31.607 3.66308 30.1616C5.95607 28.7601 7.31865 26.2657 7.31865 23.6245C7.31865 23.3091 7.29676 22.9936 7.25998 22.6708C7.21606 22.3479 7.20141 22.0251 7.20141 21.7097C7.20141 17.8359 10.1318 14.4976 14.0879 14.1014C15.5824 13.9473 16.967 13.3677 18.0952 12.4653C19.2234 11.5701 20.0951 10.3524 20.5714 8.92163C21.6482 5.71544 24.6372 3.69789 27.8241 3.69789C28.6959 3.69789 29.5749 3.84462 30.4395 4.16002C31.2893 4.47542 32.1757 4.62227 33.0549 4.62227C35.0769 4.62227 37.0623 3.81518 38.5275 2.31114C40.0219 0.770379 42.0147 0 44 0C45.9854 0 47.9781 0.770379 49.4726 2.31114C51.575 4.46815 54.74 5.19454 57.5605 4.16002C58.4251 3.84462 59.3041 3.69789 60.1759 3.69789C63.3628 3.69789 66.3518 5.71544 67.4288 8.92163C67.905 10.3524 68.7766 11.5701 69.9048 12.4653C71.033 13.3676 72.4178 13.9473 73.9121 14.1014C77.8683 14.4976 80.7987 17.8359 80.7987 21.7097C80.7987 22.0251 80.7841 22.3479 80.74 22.6708C80.7034 22.9936 80.6814 23.3091 80.6814 23.6245C80.6814 26.2658 82.0441 28.7601 84.3369 30.1616C86.7032 31.6068 88 34.1233 88 36.6986C88 38.1218 87.6044 39.56 86.7766 40.8439C85.956 42.1057 85.5532 43.5585 85.5532 44.9964C85.5532 45.7961 85.6777 46.5958 85.927 47.3661C86.1245 47.9897 86.4102 48.5914 86.7764 49.1563Z" fill="#E23744" style="fill:#E23744;fill:color(display-p3 0.8863 0.2157 0.2667);fill-opacity:1;"/>
  <path opacity="0.1" d="M87.9999 53.3015C87.9999 55.8767 86.7032 58.4006 84.3368 59.8458C82.0438 61.2471 80.6812 63.7343 80.6812 66.3756C80.6812 66.691 80.7031 67.0065 80.7399 67.3293C80.7839 67.6521 80.7986 67.975 80.7986 68.2904C80.7986 72.1643 77.8682 75.5025 73.912 75.8987C72.4175 76.0455 71.0329 76.6324 69.9047 77.5348C68.7765 78.4373 67.9047 79.6551 67.4286 81.0859C66.3517 84.2921 63.37 86.3022 60.183 86.3022C59.3113 86.3022 58.425 86.1556 57.5604 85.8401C57.1354 85.686 56.7031 85.5686 56.2637 85.4953L20.2857 49.4718C18.4321 47.6082 18.4321 44.5855 20.2857 42.7293C20.4028 42.6119 20.5202 42.5019 20.6446 42.3992C22.5128 40.8731 25.2747 40.9758 27.0256 42.7293L36.1247 51.8416L59.8903 28.0411C60.0075 27.9311 60.1247 27.8211 60.2492 27.7184C62.1174 26.1849 64.8793 26.295 66.6302 28.0411L85.9271 47.3661C86.1248 47.9898 86.4105 48.5914 86.7768 49.1563C87.6043 50.4401 87.9999 51.8782 87.9999 53.3015Z" fill="url(#paint0_linear_2719_3466)"/>
  <path d="M66.6271 28.0412C64.7674 26.179 61.7525 26.179 59.8928 28.0412L36.1267 51.8423L27.0227 42.7252C25.163 40.8631 22.1476 40.8631 20.2882 42.7252C18.4287 44.5876 18.4287 47.6069 20.2882 49.4694L32.7595 61.9586C33.6894 62.8897 34.908 63.3554 36.1267 63.3554C37.3454 63.3554 38.564 62.8897 39.4938 61.9586L66.6271 34.7855C68.4867 32.9229 68.4867 29.9037 66.6271 28.0412Z" fill="white" style="fill:white;fill-opacity:1;"/>
  <defs>
    <linearGradient id="paint0_linear_2719_3466" x1="79" y1="73" x2="49.5" y2="45.5" gradientUnits="userSpaceOnUse">
      <stop stop-color="white" stop-opacity="0" style="stop-color:none;stop-opacity:0;"/>
      <stop offset="1" stop-color="white" style="stop-color:white;stop-opacity:1;"/>
    </linearGradient>
  </defs>
</svg>